<svg width="100" height="24" viewBox="0 0 100 24" fill="none" xmlns="http://www.w3.org/2000/svg"><path d="M11.472 12H8.368l-4.56-7.408H3.76L3.824 12H1.168V.672h3.12l4.544 7.392h.048L8.816.672h2.656V12zm12.589 0h-2.752V.672h2.752V12zm20.337 0H40.83l-4.208-5.216h-.032V12h-2.688V.672h2.688V5.28h.048L40.686.672h3.424l-4.88 5.216L44.398 12zm19.547-5.712c0 1.781-.582 3.232-1.744 4.352-1.163 1.11-2.64 1.664-4.432 1.664-1.782 0-3.254-.555-4.416-1.664-1.163-1.12-1.744-2.57-1.744-4.352 0-1.792.576-3.227 1.728-4.304C54.499.907 55.977.368 57.769.368c1.802 0 3.28.539 4.432 1.616 1.162 1.077 1.744 2.512 1.744 4.304zm-2.928 0c0-1.003-.304-1.83-.912-2.48-.608-.65-1.387-.976-2.336-.976-.95 0-1.728.325-2.336.976-.598.65-.896 1.477-.896 2.48 0 1.024.298 1.867.896 2.528.608.661 1.386.992 2.336.992s1.728-.33 2.336-.992c.608-.661.912-1.504.912-2.528zM80.382 12h-7.136V.672h2.752v8.944h4.384V12zm19.506 0h-3.04l-.88-2.224h-4.384L90.752 12h-2.976L92.528.672h2.656L99.888 12zm-4.672-4.416l-1.408-3.888-1.44 3.888h2.848z" fill="#131313"/><path d="M1.472 17.336l3.296 4.824h.016v-4.824h.576V23h-.72l-3.296-4.872h-.016V23H.752v-5.664h.72zm5.965 0V23h-.576v-5.664h.576zm2.078 0v2.544h.008l2.697-2.544h.823l-2.855 2.568L13.203 23h-.848l-2.832-3.016h-.008V23H8.94v-5.664h.575zm9.013.704c.56.56.84 1.27.84 2.128 0 .859-.28 1.57-.84 2.136-.56.56-1.264.84-2.112.84-.848 0-1.552-.28-2.112-.84-.56-.565-.84-1.277-.84-2.136 0-.859.28-1.568.84-2.128.56-.565 1.264-.848 2.112-.848.848 0 1.552.283 2.112.848zm-.416 3.88c.432-.48.648-1.064.648-1.752s-.216-1.272-.648-1.752c-.427-.48-.992-.72-1.696-.72s-1.272.24-1.704.72c-.427.48-.64 1.064-.64 1.752s.213 1.272.64 1.752c.432.475 1 .712 1.704.712s1.269-.237 1.696-.712zm3.029-4.584v5.152h2.64V23h-3.216v-5.664h.575zm4.078 4.176L24.603 23h-.632l2.448-5.664h.56L29.41 23h-.64l-.624-1.488h-2.928zm1.464-3.536l-1.248 3.008h2.496l-1.248-3.008zm5.997-.64v2.544h.008l2.696-2.544h.824l-2.856 2.568L36.368 23h-.848l-2.832-3.016h-.008V23h-.576v-5.664h.576zM37.127 23v-5.664h.576v2.456h3.088v-2.456h.576V23h-.576v-2.68h-3.088V23h-.576zm6.318-5.664v5.152h2.64V23H42.87v-5.664h.576zM49.704 23c-.25.096-.539.144-.864.144-.325 0-.616-.048-.872-.144a1.876 1.876 0 0 1-.608-.376 1.881 1.881 0 0 1-.384-.536 2.639 2.639 0 0 1-.2-.6 3.223 3.223 0 0 1-.056-.6v-3.552h.576v3.488c0 .512.123.941.368 1.288.25.347.643.52 1.176.52.533 0 .923-.173 1.168-.52.25-.347.376-.776.376-1.288v-3.488h.576v3.552c0 .203-.019.403-.056.6a2.44 2.44 0 0 1-.208.6 1.762 1.762 0 0 1-.376.536c-.155.15-.36.275-.616.376zm5.928-5.12l-.456.368c-.267-.379-.656-.568-1.168-.568a1.35 1.35 0 0 0-.84.28c-.246.187-.368.448-.368.784 0 .139.024.264.072.376.053.112.109.2.168.264.058.064.154.13.288.2.138.07.245.117.32.144l.384.128c.181.059.298.099.352.12.058.016.165.056.32.12.16.064.269.12.328.168.064.043.149.11.256.2a.81.81 0 0 1 .232.272c.048.09.09.203.128.336.042.133.064.28.064.44 0 .528-.184.933-.552 1.216-.368.277-.8.416-1.296.416-.358 0-.696-.072-1.016-.216a1.915 1.915 0 0 1-.768-.624l.496-.368c.133.213.312.387.536.52.224.128.477.192.76.192.325 0 .616-.096.872-.288a.965.965 0 0 0 .384-.808.9.9 0 0 0-.088-.408 1.042 1.042 0 0 0-.184-.296 1.053 1.053 0 0 0-.328-.216 2.617 2.617 0 0 0-.36-.16 12.465 12.465 0 0 0-.424-.136 5.09 5.09 0 0 1-.568-.208 2.753 2.753 0 0 1-.464-.28 1.158 1.158 0 0 1-.368-.448 1.633 1.633 0 0 1-.12-.648c0-.347.093-.64.28-.88a1.59 1.59 0 0 1 .68-.52c.266-.107.549-.16.848-.16.357 0 .677.067.96.2.282.128.496.29.64.488zm6.075.16c.56.56.84 1.27.84 2.128 0 .859-.28 1.57-.84 2.136-.56.56-1.264.84-2.112.84-.848 0-1.552-.28-2.112-.84-.56-.565-.84-1.277-.84-2.136 0-.859.28-1.568.84-2.128.56-.565 1.264-.848 2.112-.848.848 0 1.552.283 2.112.848zm-.416 3.88c.432-.48.648-1.064.648-1.752s-.216-1.272-.648-1.752c-.426-.48-.992-.72-1.696-.72s-1.272.24-1.704.72c-.426.48-.64 1.064-.64 1.752s.214 1.272.64 1.752c.432.475 1 .712 1.704.712s1.27-.237 1.696-.712zm2.255-4.584l1.84 4.92h.016l1.84-4.92h.616L65.69 23h-.608l-2.16-5.664h.624zm10.148.544l-.456.368c-.266-.379-.656-.568-1.168-.568a1.35 1.35 0 0 0-.84.28c-.245.187-.368.448-.368.784 0 .139.024.264.072.376.053.112.11.2.168.264.059.064.155.13.288.2.139.07.245.117.32.144l.384.128c.181.059.299.099.352.12.059.016.166.056.32.12.16.064.27.12.328.168.064.043.15.11.256.2a.81.81 0 0 1 .232.272c.048.09.09.203.128.336.043.133.064.28.064.44 0 .528-.184.933-.552 1.216-.368.277-.8.416-1.296.416-.357 0-.696-.072-1.016-.216a1.915 1.915 0 0 1-.768-.624l.496-.368c.133.213.312.387.536.52.224.128.477.192.76.192.326 0 .616-.096.872-.288a.965.965 0 0 0 .384-.808.9.9 0 0 0-.088-.408 1.042 1.042 0 0 0-.184-.296 1.053 1.053 0 0 0-.328-.216 2.617 2.617 0 0 0-.36-.16 11.76 11.76 0 0 0-.424-.136 5.09 5.09 0 0 1-.568-.208 2.753 2.753 0 0 1-.464-.28 1.158 1.158 0 0 1-.368-.448 1.633 1.633 0 0 1-.12-.648c0-.347.093-.64.28-.88a1.59 1.59 0 0 1 .68-.52c.267-.107.55-.16.848-.16.358 0 .678.067.96.2.283.128.496.29.64.488zm2.991-.032V23h-.576v-5.152h-1.896v-.512h4.368v.512h-1.896zM82.384 23a2.408 2.408 0 0 1-.864.144c-.326 0-.616-.048-.872-.144a1.876 1.876 0 0 1-.608-.376 1.881 1.881 0 0 1-.384-.536 2.639 2.639 0 0 1-.2-.6 3.223 3.223 0 0 1-.056-.6v-3.552h.576v3.488c0 .512.122.941.368 1.288.25.347.642.52 1.176.52.533 0 .922-.173 1.168-.52.25-.347.376-.776.376-1.288v-3.488h.576v3.552c0 .203-.019.403-.056.6a2.44 2.44 0 0 1-.208.6 1.762 1.762 0 0 1-.376.536c-.155.15-.36.275-.616.376zm2.727 0v-5.664h1.88c.363 0 .718.061 1.064.184.347.117.664.29.952.52.288.224.52.523.696.896.176.368.264.779.264 1.232 0 .453-.088.867-.264 1.24a2.503 2.503 0 0 1-.696.896 3.375 3.375 0 0 1-.952.52 3.299 3.299 0 0 1-1.064.176h-1.88zm.576-5.152v4.64h1.144c.411 0 .779-.064 1.104-.192.331-.133.598-.31.8-.528a2.42 2.42 0 0 0 .464-.744c.107-.272.16-.557.16-.856a2.325 2.325 0 0 0-.624-1.592 2.05 2.05 0 0 0-.8-.528 2.89 2.89 0 0 0-1.104-.2h-1.144zm6.055-.512V23h-.576v-5.664h.576zm6.262.704c.56.56.84 1.27.84 2.128 0 .859-.28 1.57-.84 2.136-.56.56-1.264.84-2.112.84-.848 0-1.552-.28-2.112-.84-.56-.565-.84-1.277-.84-2.136 0-.859.28-1.568.84-2.128.56-.565 1.264-.848 2.112-.848.848 0 1.552.283 2.112.848zm-.416 3.88c.432-.48.648-1.064.648-1.752s-.216-1.272-.648-1.752c-.426-.48-.992-.72-1.696-.72s-1.272.24-1.704.72c-.427.48-.64 1.064-.64 1.752s.213 1.272.64 1.752c.432.475 1 .712 1.704.712s1.27-.237 1.696-.712z" fill="#A4A4A4"/></svg>