<svg width="100" height="24" viewBox="0 0 100 24" fill="none" xmlns="http://www.w3.org/2000/svg">
<path d="M11.472 12H8.368L3.808 4.592H3.76L3.824 12H1.168V0.672H4.288L8.832 8.064H8.88L8.816 0.672H11.472V12ZM24.0606 12H21.3086V0.672H24.0606V12ZM44.3984 12H40.8304L36.6224 6.784H36.5904V12H33.9024V0.672H36.5904V5.28H36.6384L40.6864 0.672H44.1104L39.2304 5.888L44.3984 12ZM63.9448 6.288C63.9448 8.06933 63.3634 9.52 62.2008 10.64C61.0381 11.7493 59.5608 12.304 57.7688 12.304C55.9874 12.304 54.5154 11.7493 53.3528 10.64C52.1901 9.52 51.6088 8.06933 51.6088 6.288C51.6088 4.496 52.1848 3.06133 53.3368 1.984C54.4994 0.906666 55.9768 0.367999 57.7688 0.367999C59.5714 0.367999 61.0488 0.906666 62.2008 1.984C63.3634 3.06133 63.9448 4.496 63.9448 6.288ZM61.0168 6.288C61.0168 5.28533 60.7128 4.45867 60.1048 3.808C59.4968 3.15733 58.7181 2.832 57.7688 2.832C56.8194 2.832 56.0408 3.15733 55.4328 3.808C54.8354 4.45867 54.5368 5.28533 54.5368 6.288C54.5368 7.312 54.8354 8.15467 55.4328 8.816C56.0408 9.47733 56.8194 9.808 57.7688 9.808C58.7181 9.808 59.4968 9.47733 60.1048 8.816C60.7128 8.15467 61.0168 7.312 61.0168 6.288ZM80.3821 12H73.2461V0.672H75.9981V9.616H80.3821V12ZM99.888 12H96.848L95.968 9.776H91.584L90.752 12H87.776L92.528 0.672H95.184L99.888 12ZM95.216 7.584L93.808 3.696L92.368 7.584H95.216Z" fill="white"/>
<path d="M1.472 17.336L4.768 22.16H4.784V17.336H5.36V23H4.64L1.344 18.128H1.328V23H0.752V17.336H1.472ZM7.43738 17.336V23H6.86138V17.336H7.43738ZM9.5155 17.336V19.88H9.5235L12.2195 17.336H13.0435L10.1875 19.904L13.2035 23H12.3555L9.5235 19.984H9.5155V23H8.9395V17.336H9.5155ZM18.5276 18.04C19.0876 18.6 19.3676 19.3093 19.3676 20.168C19.3676 21.0267 19.0876 21.7387 18.5276 22.304C17.9676 22.864 17.2636 23.144 16.4156 23.144C15.5676 23.144 14.8636 22.864 14.3036 22.304C13.7436 21.7387 13.4636 21.0267 13.4636 20.168C13.4636 19.3093 13.7436 18.6 14.3036 18.04C14.8636 17.4747 15.5676 17.192 16.4156 17.192C17.2636 17.192 17.9676 17.4747 18.5276 18.04ZM18.1116 21.92C18.5436 21.44 18.7596 20.856 18.7596 20.168C18.7596 19.48 18.5436 18.896 18.1116 18.416C17.685 17.936 17.1196 17.696 16.4156 17.696C15.7116 17.696 15.1436 17.936 14.7116 18.416C14.285 18.896 14.0716 19.48 14.0716 20.168C14.0716 20.856 14.285 21.44 14.7116 21.92C15.1436 22.3947 15.7116 22.632 16.4156 22.632C17.1196 22.632 17.685 22.3947 18.1116 21.92ZM21.1405 17.336V22.488H23.7805V23H20.5645V17.336H21.1405ZM25.2186 21.512L24.6026 23H23.9706L26.4186 17.336H26.9786L29.4106 23H28.7706L28.1466 21.512H25.2186ZM26.6826 17.976L25.4346 20.984H27.9306L26.6826 17.976ZM32.6796 17.336V19.88H32.6876L35.3836 17.336H36.2076L33.3516 19.904L36.3676 23H35.5196L32.6876 19.984H32.6796V23H32.1036V17.336H32.6796ZM37.127 23V17.336H37.703V19.792H40.791V17.336H41.367V23H40.791V20.32H37.703V23H37.127ZM43.4452 17.336V22.488H46.0852V23H42.8692V17.336H43.4452ZM49.704 23C49.4533 23.096 49.1653 23.144 48.84 23.144C48.5147 23.144 48.224 23.096 47.968 23C47.7173 22.8987 47.5147 22.7733 47.36 22.624C47.2053 22.4747 47.0773 22.296 46.976 22.088C46.88 21.88 46.8133 21.68 46.776 21.488C46.7387 21.2907 46.72 21.0907 46.72 20.888V17.336H47.296V20.824C47.296 21.336 47.4187 21.7653 47.664 22.112C47.9147 22.4587 48.3067 22.632 48.84 22.632C49.3733 22.632 49.7627 22.4587 50.008 22.112C50.2587 21.7653 50.384 21.336 50.384 20.824V17.336H50.96V20.888C50.96 21.0907 50.9413 21.2907 50.904 21.488C50.8667 21.68 50.7973 21.88 50.696 22.088C50.6 22.296 50.4747 22.4747 50.32 22.624C50.1653 22.7733 49.96 22.8987 49.704 23ZM55.6317 17.88L55.1757 18.248C54.909 17.8693 54.5197 17.68 54.0077 17.68C53.693 17.68 53.413 17.7733 53.1677 17.96C52.9224 18.1467 52.7997 18.408 52.7997 18.744C52.7997 18.8827 52.8237 19.008 52.8717 19.12C52.925 19.232 52.981 19.32 53.0397 19.384C53.0984 19.448 53.1944 19.5147 53.3277 19.584C53.4664 19.6533 53.573 19.7013 53.6477 19.728C53.7277 19.7547 53.8557 19.7973 54.0317 19.856C54.213 19.9147 54.3304 19.9547 54.3837 19.976C54.4424 19.992 54.549 20.032 54.7037 20.096C54.8637 20.16 54.973 20.216 55.0317 20.264C55.0957 20.3067 55.181 20.3733 55.2877 20.464C55.3997 20.5547 55.477 20.6453 55.5197 20.736C55.5677 20.8267 55.6104 20.9387 55.6477 21.072C55.6904 21.2053 55.7117 21.352 55.7117 21.512C55.7117 22.04 55.5277 22.4453 55.1597 22.728C54.7917 23.0053 54.3597 23.144 53.8637 23.144C53.5064 23.144 53.1677 23.072 52.8477 22.928C52.533 22.784 52.277 22.576 52.0797 22.304L52.5757 21.936C52.709 22.1493 52.8877 22.3227 53.1117 22.456C53.3357 22.584 53.589 22.648 53.8717 22.648C54.197 22.648 54.4877 22.552 54.7437 22.36C54.9997 22.1627 55.1277 21.8933 55.1277 21.552C55.1277 21.3973 55.0984 21.2613 55.0397 21.144C54.9864 21.0213 54.925 20.9227 54.8557 20.848C54.7864 20.7733 54.677 20.7013 54.5277 20.632C54.3837 20.5573 54.2637 20.504 54.1677 20.472C54.077 20.44 53.9357 20.3947 53.7437 20.336C53.5197 20.2667 53.3304 20.1973 53.1757 20.128C53.0264 20.0587 52.8717 19.9653 52.7117 19.848C52.5517 19.7307 52.429 19.5813 52.3437 19.4C52.2637 19.2133 52.2237 18.9973 52.2237 18.752C52.2237 18.4053 52.317 18.112 52.5037 17.872C52.6957 17.6267 52.9224 17.4533 53.1837 17.352C53.4504 17.2453 53.733 17.192 54.0317 17.192C54.389 17.192 54.709 17.2587 54.9917 17.392C55.2744 17.52 55.4877 17.6827 55.6317 17.88ZM61.7073 18.04C62.2673 18.6 62.5473 19.3093 62.5473 20.168C62.5473 21.0267 62.2673 21.7387 61.7073 22.304C61.1473 22.864 60.4433 23.144 59.5953 23.144C58.7473 23.144 58.0433 22.864 57.4833 22.304C56.9233 21.7387 56.6433 21.0267 56.6433 20.168C56.6433 19.3093 56.9233 18.6 57.4833 18.04C58.0433 17.4747 58.7473 17.192 59.5953 17.192C60.4433 17.192 61.1473 17.4747 61.7073 18.04ZM61.2913 21.92C61.7233 21.44 61.9393 20.856 61.9393 20.168C61.9393 19.48 61.7233 18.896 61.2913 18.416C60.8646 17.936 60.2993 17.696 59.5953 17.696C58.8913 17.696 58.3233 17.936 57.8913 18.416C57.4646 18.896 57.2513 19.48 57.2513 20.168C57.2513 20.856 57.4646 21.44 57.8913 21.92C58.3233 22.3947 58.8913 22.632 59.5953 22.632C60.2993 22.632 60.8646 22.3947 61.2913 21.92ZM63.5464 17.336L65.3864 22.256H65.4024L67.2424 17.336H67.8584L65.6904 23H65.0824L62.9224 17.336H63.5464ZM73.6942 17.88L73.2382 18.248C72.9715 17.8693 72.5822 17.68 72.0702 17.68C71.7555 17.68 71.4755 17.7733 71.2302 17.96C70.9849 18.1467 70.8622 18.408 70.8622 18.744C70.8622 18.8827 70.8862 19.008 70.9342 19.12C70.9875 19.232 71.0435 19.32 71.1022 19.384C71.1609 19.448 71.2569 19.5147 71.3902 19.584C71.5289 19.6533 71.6355 19.7013 71.7102 19.728C71.7902 19.7547 71.9182 19.7973 72.0942 19.856C72.2755 19.9147 72.3929 19.9547 72.4462 19.976C72.5049 19.992 72.6115 20.032 72.7662 20.096C72.9262 20.16 73.0355 20.216 73.0942 20.264C73.1582 20.3067 73.2435 20.3733 73.3502 20.464C73.4622 20.5547 73.5395 20.6453 73.5822 20.736C73.6302 20.8267 73.6729 20.9387 73.7102 21.072C73.7529 21.2053 73.7742 21.352 73.7742 21.512C73.7742 22.04 73.5902 22.4453 73.2222 22.728C72.8542 23.0053 72.4222 23.144 71.9262 23.144C71.5689 23.144 71.2302 23.072 70.9102 22.928C70.5955 22.784 70.3395 22.576 70.1422 22.304L70.6382 21.936C70.7715 22.1493 70.9502 22.3227 71.1742 22.456C71.3982 22.584 71.6515 22.648 71.9342 22.648C72.2595 22.648 72.5502 22.552 72.8062 22.36C73.0622 22.1627 73.1902 21.8933 73.1902 21.552C73.1902 21.3973 73.1609 21.2613 73.1022 21.144C73.0489 21.0213 72.9875 20.9227 72.9182 20.848C72.8489 20.7733 72.7395 20.7013 72.5902 20.632C72.4462 20.5573 72.3262 20.504 72.2302 20.472C72.1395 20.44 71.9982 20.3947 71.8062 20.336C71.5822 20.2667 71.3929 20.1973 71.2382 20.128C71.0889 20.0587 70.9342 19.9653 70.7742 19.848C70.6142 19.7307 70.4915 19.5813 70.4062 19.4C70.3262 19.2133 70.2862 18.9973 70.2862 18.752C70.2862 18.4053 70.3795 18.112 70.5662 17.872C70.7582 17.6267 70.9849 17.4533 71.2462 17.352C71.5129 17.2453 71.7955 17.192 72.0942 17.192C72.4515 17.192 72.7715 17.2587 73.0542 17.392C73.3369 17.52 73.5502 17.6827 73.6942 17.88ZM76.6852 17.848V23H76.1092V17.848H74.2132V17.336H78.5812V17.848H76.6852ZM82.3837 23C82.133 23.096 81.845 23.144 81.5197 23.144C81.1944 23.144 80.9037 23.096 80.6477 23C80.397 22.8987 80.1944 22.7733 80.0397 22.624C79.885 22.4747 79.757 22.296 79.6557 22.088C79.5597 21.88 79.493 21.68 79.4557 21.488C79.4184 21.2907 79.3997 21.0907 79.3997 20.888V17.336H79.9757V20.824C79.9757 21.336 80.0984 21.7653 80.3437 22.112C80.5944 22.4587 80.9864 22.632 81.5197 22.632C82.053 22.632 82.4424 22.4587 82.6877 22.112C82.9384 21.7653 83.0637 21.336 83.0637 20.824V17.336H83.6397V20.888C83.6397 21.0907 83.621 21.2907 83.5837 21.488C83.5464 21.68 83.477 21.88 83.3757 22.088C83.2797 22.296 83.1544 22.4747 82.9997 22.624C82.845 22.7733 82.6397 22.8987 82.3837 23ZM85.1114 23V17.336H86.9914C87.354 17.336 87.7087 17.3973 88.0554 17.52C88.402 17.6373 88.7194 17.8107 89.0074 18.04C89.2954 18.264 89.5274 18.5627 89.7034 18.936C89.8794 19.304 89.9674 19.7147 89.9674 20.168C89.9674 20.6213 89.8794 21.0347 89.7034 21.408C89.5274 21.776 89.2954 22.0747 89.0074 22.304C88.7194 22.528 88.402 22.7013 88.0554 22.824C87.7087 22.9413 87.354 23 86.9914 23H85.1114ZM85.6874 17.848V22.488H86.8314C87.242 22.488 87.61 22.424 87.9354 22.296C88.266 22.1627 88.5327 21.9867 88.7354 21.768C88.938 21.544 89.0927 21.296 89.1994 21.024C89.306 20.752 89.3594 20.4667 89.3594 20.168C89.3594 19.8693 89.306 19.584 89.1994 19.312C89.0927 19.04 88.938 18.7947 88.7354 18.576C88.5327 18.352 88.266 18.176 87.9354 18.048C87.61 17.9147 87.242 17.848 86.8314 17.848H85.6874ZM91.7421 17.336V23H91.1661V17.336H91.7421ZM98.0042 18.04C98.5642 18.6 98.8442 19.3093 98.8442 20.168C98.8442 21.0267 98.5642 21.7387 98.0042 22.304C97.4442 22.864 96.7402 23.144 95.8922 23.144C95.0442 23.144 94.3402 22.864 93.7802 22.304C93.2202 21.7387 92.9402 21.0267 92.9402 20.168C92.9402 19.3093 93.2202 18.6 93.7802 18.04C94.3402 17.4747 95.0442 17.192 95.8922 17.192C96.7402 17.192 97.4442 17.4747 98.0042 18.04ZM97.5882 21.92C98.0202 21.44 98.2362 20.856 98.2362 20.168C98.2362 19.48 98.0202 18.896 97.5882 18.416C97.1615 17.936 96.5962 17.696 95.8922 17.696C95.1882 17.696 94.6202 17.936 94.1882 18.416C93.7615 18.896 93.5482 19.48 93.5482 20.168C93.5482 20.856 93.7615 21.44 94.1882 21.92C94.6202 22.3947 95.1882 22.632 95.8922 22.632C96.5962 22.632 97.1615 22.3947 97.5882 21.92Z" fill="#A4A4A4"/>
</svg>
